STARTFONT 2.1
FONT -FontForge-Terminal-Normal-R-Normal--23-140-120-120-M-120-WinRoman-0
SIZE 14 120 120
FONTBOUNDINGBOX 12 27 0 -3
COMMENT "Generated by fontforge, http://fontforge.sourceforge.net"
COMMENT "(c) Copyright Microsoft Corp. 1993. All rights reserved."
STARTPROPERTIES 33
FOUNDRY "FontForge"
FAMILY_NAME "Terminal"
WEIGHT_NAME "Normal"
SLANT "R"
SETWIDTH_NAME "Normal"
ADD_STYLE_NAME ""
PIXEL_SIZE 23
POINT_SIZE 140
RESOLUTION_X 120
RESOLUTION_Y 120
SPACING "M"
AVERAGE_WIDTH 120
CHARSET_REGISTRY "WinRoman"
CHARSET_ENCODING "0"
FONTNAME_REGISTRY ""
CHARSET_COLLECTIONS "WinRoman"
FONT_NAME "Terminal"
FACE_NAME "Terminal"
FONT_VERSION "001.000"
FONT_ASCENT 18
FONT_DESCENT 5
UNDERLINE_POSITION -2
UNDERLINE_THICKNESS 2
X_HEIGHT 15
CAP_HEIGHT 21
RAW_ASCENT 800
RAW_DESCENT 200
NORM_SPACE 12
RELATIVE_WEIGHT 40
RELATIVE_SETWIDTH 50
FIGURE_WIDTH 12
AVG_LOWERCASE_WIDTH 120
AVG_UPPERCASE_WIDTH 120
ENDPROPERTIES
CHARS 256
STARTCHAR uni0000
ENCODING 0
SWIDTH 54 0
DWIDTH 12 0
BBX 1 1 11 -3
BITMAP
00
ENDCHAR
STARTCHAR uni0001
ENCODING 1
SWIDTH 54 0
DWIDTH 12 0
BBX 7 16 5 -3
BITMAP
FE
FE
C0
C0
C0
C0
C0
C0
C0
C0
C0
C0
C0
C0
C0
C0
ENDCHAR
STARTCHAR uni0002
ENCODING 2
SWIDTH 54 0
DWIDTH 12 0
BBX 7 16 0 -3
BITMAP
FE
FE
06
06
06
06
06
06
06
06
06
06
06
06
06
06
ENDCHAR
STARTCHAR uni0003
ENCODING 3
SWIDTH 54 0
DWIDTH 12 0
BBX 7 13 5 11
BITMAP
C0
C0
C0
C0
C0
C0
C0
C0
C0
C0
C0
FE
FE
ENDCHAR
STARTCHAR uni0004
ENCODING 4
SWIDTH 54 0
DWIDTH 12 0
BBX 7 13 0 11
BITMAP
06
06
06
06
06
06
06
06
06
06
06
FE
FE
ENDCHAR
STARTCHAR uni0005
ENCODING 5
SWIDTH 54 0
DWIDTH 12 0
BBX 2 27 5 -3
BITMAP
C0
C0
C0
C0
C0
C0
C0
C0
C0
C0
C0
C0
C0
C0
C0
C0
C0
C0
C0
C0
C0
C0
C0
C0
C0
C0
C0
ENDCHAR
STARTCHAR uni0006
ENCODING 6
SWIDTH 54 0
DWIDTH 12 0
BBX 12 2 0 11
BITMAP
FFF0
FFF0
ENDCHAR
STARTCHAR uni0007
ENCODING 7
SWIDTH 54 0
DWIDTH 12 0
BBX 4 4 4 8
BITMAP
60
F0
F0
60
ENDCHAR
STARTCHAR uni0008
ENCODING 8
SWIDTH 54 0
DWIDTH 12 0
BBX 12 27 0 -3
BITMAP
FFF0
FFF0
FFF0
FFF0
FFF0
FFF0
FFF0
FFF0
FFF0
FFF0
FFF0
FFF0
F9F0
F0F0
F0F0
F9F0
FFF0
FFF0
FFF0
FFF0
FFF0
FFF0
FFF0
FFF0
FFF0
FFF0
FFF0
ENDCHAR
STARTCHAR uni0009
ENCODING 9
SWIDTH 54 0
DWIDTH 12 0
BBX 6 8 3 6
BITMAP
30
48
84
84
84
84
48
30
ENDCHAR
STARTCHAR uni000A
ENCODING 10
SWIDTH 54 0
DWIDTH 12 0
BBX 12 27 0 -3
BITMAP
FFF0
FFF0
FFF0
FFF0
FFF0
FFF0
FFF0
FFF0
FFF0
FFF0
F9F0
F6F0
EF70
EF70
EF70
EF70
F6F0
F9F0
FFF0
FFF0
FFF0
FFF0
FFF0
FFF0
FFF0
FFF0
FFF0
ENDCHAR
STARTCHAR uni000B
ENCODING 11
SWIDTH 54 0
DWIDTH 12 0
BBX 10 9 1 6
BITMAP
03C0
00C0
3D40
6640
C300
C300
C300
6600
3C00
ENDCHAR
STARTCHAR uni000C
ENCODING 12
SWIDTH 54 0
DWIDTH 12 0
BBX 8 12 3 4
BITMAP
3C
66
C3
C3
C3
66
3C
18
18
7E
18
18
ENDCHAR
STARTCHAR uni000D
ENCODING 13
SWIDTH 54 0
DWIDTH 12 0
BBX 7 13 3 4
BITMAP
10
18
1C
1E
16
16
14
10
10
70
F0
F0
60
ENDCHAR
STARTCHAR uni000E
ENCODING 14
SWIDTH 54 0
DWIDTH 12 0
BBX 9 15 1 3
BITMAP
1800
1C00
1600
1300
1980
1C80
1680
1380
7180
F080
F080
6380
0780
0780
0300
ENDCHAR
STARTCHAR uni000F
ENCODING 15
SWIDTH 54 0
DWIDTH 12 0
BBX 11 13 1 4
BITMAP
0400
0400
4E40
3F80
3180
60C0
E0E0
60C0
3180
3F80
4E40
0400
0400
ENDCHAR
STARTCHAR uni0010
ENCODING 16
SWIDTH 54 0
DWIDTH 12 0
BBX 12 27 0 -3
BITMAP
0600
0600
0600
0600
0600
0600
0600
0600
0600
0600
0600
FFF0
FFF0
0600
0600
0600
0600
0600
0600
0600
0600
0600
0600
0600
0600
0600
0600
ENDCHAR
STARTCHAR uni0011
ENCODING 17
SWIDTH 54 0
DWIDTH 12 0
BBX 6 11 3 5
BITMAP
04
0C
1C
3C
7C
FC
7C
3C
1C
0C
04
ENDCHAR
STARTCHAR uni0012
ENCODING 18
SWIDTH 54 0
DWIDTH 12 0
BBX 7 13 3 4
BITMAP
10
38
7C
FE
10
10
10
10
10
FE
7C
38
10
ENDCHAR
STARTCHAR uni0013
ENCODING 19
SWIDTH 54 0
DWIDTH 12 0
BBX 6 13 3 4
BITMAP
CC
CC
CC
CC
CC
CC
CC
CC
CC
CC
00
CC
CC
ENDCHAR
STARTCHAR uni0014
ENCODING 20
SWIDTH 54 0
DWIDTH 12 0
BBX 10 13 1 3
BITMAP
3FC0
6D80
CD80
CD80
CD80
6D80
3D80
0D80
0D80
0D80
0D80
0D80
0D80
ENDCHAR
STARTCHAR uni0015
ENCODING 21
SWIDTH 54 0
DWIDTH 12 0
BBX 12 13 0 11
BITMAP
0600
0600
0600
0600
0600
0600
0600
0600
0600
0600
0600
FFF0
FFF0
ENDCHAR
STARTCHAR uni0016
ENCODING 22
SWIDTH 54 0
DWIDTH 12 0
BBX 12 16 0 -3
BITMAP
FFF0
FFF0
0600
0600
0600
0600
0600
0600
0600
0600
0600
0600
0600
0600
0600
0600
ENDCHAR
STARTCHAR uni0017
ENCODING 23
SWIDTH 54 0
DWIDTH 12 0
BBX 7 27 0 -3
BITMAP
06
06
06
06
06
06
06
06
06
06
06
FE
FE
06
06
06
06
06
06
06
06
06
06
06
06
06
06
ENDCHAR
STARTCHAR uni0018
ENCODING 24
SWIDTH 54 0
DWIDTH 12 0
BBX 7 13 3 4
BITMAP
10
38
7C
FE
10
10
10
10
10
10
10
10
10
ENDCHAR
STARTCHAR uni0019
ENCODING 25
SWIDTH 54 0
DWIDTH 12 0
BBX 7 27 5 -3
BITMAP
C0
C0
C0
C0
C0
C0
C0
C0
C0
C0
C0
FE
FE
C0
C0
C0
C0
C0
C0
C0
C0
C0
C0
C0
C0
C0
C0
ENDCHAR
STARTCHAR uni001A
ENCODING 26
SWIDTH 54 0
DWIDTH 12 0
BBX 9 7 2 7
BITMAP
0400
0600
0700
FF80
0700
0600
0400
ENDCHAR
STARTCHAR uni001B
ENCODING 27
SWIDTH 54 0
DWIDTH 12 0
BBX 9 7 2 7
BITMAP
1000
3000
7000
FF80
7000
3000
1000
ENDCHAR
STARTCHAR uni001C
ENCODING 28
SWIDTH 54 0
DWIDTH 12 0
BBX 10 6 1 4
BITMAP
8000
8000
8000
8000
8000
FFC0
ENDCHAR
STARTCHAR uni001D
ENCODING 29
SWIDTH 54 0
DWIDTH 12 0
BBX 11 7 1 7
BITMAP
1100
3180
71C0
FFE0
71C0
3180
1100
ENDCHAR
STARTCHAR uni001E
ENCODING 30
SWIDTH 54 0
DWIDTH 12 0
BBX 11 6 1 7
BITMAP
0400
0E00
1F00
3F80
7FC0
FFE0
ENDCHAR
STARTCHAR uni001F
ENCODING 31
SWIDTH 54 0
DWIDTH 12 0
BBX 11 6 1 7
BITMAP
FFE0
7FC0
3F80
1F00
0E00
0400
ENDCHAR
STARTCHAR space
ENCODING 32
SWIDTH 54 0
DWIDTH 12 0
BBX 1 1 11 -3
BITMAP
00
ENDCHAR
STARTCHAR exclam
ENCODING 33
SWIDTH 54 0
DWIDTH 12 0
BBX 4 22 4 0
BITMAP
F0
F0
F0
F0
F0
F0
F0
F0
F0
60
60
60
60
60
60
60
00
00
F0
F0
F0
F0
ENDCHAR
STARTCHAR quotedbl
ENCODING 34
SWIDTH 54 0
DWIDTH 12 0
BBX 10 4 1 18
BITMAP
1DC0
3B80
6600
8800
ENDCHAR
STARTCHAR numbersign
ENCODING 35
SWIDTH 54 0
DWIDTH 12 0
BBX 11 21 1 1
BITMAP
18C0
18C0
18C0
18C0
18C0
FFE0
FFE0
3180
3180
3180
3180
3180
3180
FFE0
FFE0
6300
6300
6300
6300
6300
6300
ENDCHAR
STARTCHAR dollar
ENCODING 36
SWIDTH 54 0
DWIDTH 12 0
BBX 10 23 1 0
BITMAP
0C00
0C00
3F00
7F80
6DC0
CCC0
CC80
CC00
6C00
7C00
3E00
1F00
0F80
0D80
0CC0
0CC0
4CC0
CCC0
ED80
7F80
3F00
0C00
0C00
ENDCHAR
STARTCHAR percent
ENCODING 37
SWIDTH 54 0
DWIDTH 12 0
BBX 11 21 1 1
BITMAP
3040
7860
CCC0
CCC0
CD80
CD80
CF00
7B00
3600
0600
0400
0C00
0D80
1BC0
1E60
3660
3660
6660
6660
C3C0
4180
ENDCHAR
STARTCHAR ampersand
ENCODING 38
SWIDTH 54 0
DWIDTH 12 0
BBX 11 19 1 3
BITMAP
1C00
3E00
3600
6300
6300
6300
3600
3600
1C40
3860
6C60
6CC0
C6C0
C780
C380
C380
67C0
7EE0
1840
ENDCHAR
STARTCHAR quotesingle
ENCODING 39
SWIDTH 54 0
DWIDTH 12 0
BBX 3 6 5 16
BITMAP
E0
E0
E0
60
C0
80
ENDCHAR
STARTCHAR parenleft
ENCODING 40
SWIDTH 54 0
DWIDTH 12 0
BBX 8 23 2 0
BITMAP
02
07
0E
1C
38
30
70
60
60
E0
C0
C0
C0
E0
60
60
70
30
38
1C
0E
07
02
ENDCHAR
STARTCHAR parenright
ENCODING 41
SWIDTH 54 0
DWIDTH 12 0
BBX 8 23 2 0
BITMAP
40
E0
70
38
1C
0C
0E
06
06
07
03
03
03
07
06
06
0E
0C
1C
38
70
E0
40
ENDCHAR
STARTCHAR asterisk
ENCODING 42
SWIDTH 54 0
DWIDTH 12 0
BBX 10 13 1 6
BITMAP
0C00
0C00
4C80
EDC0
7F80
3F00
1E00
3F00
7F80
EDC0
4C80
0C00
0C00
ENDCHAR
STARTCHAR plus
ENCODING 43
SWIDTH 54 0
DWIDTH 12 0
BBX 10 10 1 7
BITMAP
0C00
0C00
0C00
0C00
FFC0
FFC0
0C00
0C00
0C00
0C00
ENDCHAR
STARTCHAR comma
ENCODING 44
SWIDTH 54 0
DWIDTH 12 0
BBX 4 8 4 0
BITMAP
F0
F0
F0
F0
30
30
60
C0
ENDCHAR
STARTCHAR hyphen
ENCODING 45
SWIDTH 54 0
DWIDTH 12 0
BBX 10 2 1 11
BITMAP
FFC0
FFC0
ENDCHAR
STARTCHAR period
ENCODING 46
SWIDTH 54 0
DWIDTH 12 0
BBX 4 4 4 2
BITMAP
F0
F0
F0
F0
ENDCHAR
STARTCHAR slash
ENCODING 47
SWIDTH 54 0
DWIDTH 12 0
BBX 11 20 1 1
BITMAP
0040
0060
00C0
00C0
0180
0180
0300
0300
0600
0600
0C00
0C00
1800
1800
3000
3000
6000
6000
C000
4000
ENDCHAR
STARTCHAR zero
ENCODING 48
SWIDTH 54 0
DWIDTH 12 0
BBX 10 19 1 3
BITMAP
1E00
3F00
7380
6180
E1C0
C0C0
C0C0
C0C0
C0C0
C0C0
C0C0
C0C0
C0C0
C0C0
E1C0
6180
7380
3F00
1E00
ENDCHAR
STARTCHAR one
ENCODING 49
SWIDTH 54 0
DWIDTH 12 0
BBX 5 19 3 3
BITMAP
18
38
F8
18
18
18
18
18
18
18
18
18
18
18
18
18
18
18
18
ENDCHAR
STARTCHAR two
ENCODING 50
SWIDTH 54 0
DWIDTH 12 0
BBX 10 19 1 3
BITMAP
1E00
7F80
6180
C0C0
C0C0
C0C0
01C0
0180
0380
0300
0700
0E00
1C00
1800
3800
7000
6000
FFC0
FFC0
ENDCHAR
STARTCHAR three
ENCODING 51
SWIDTH 54 0
DWIDTH 12 0
BBX 10 19 1 3
BITMAP
1E00
7F80
6180
C0C0
C0C0
00C0
00C0
0180
1F80
1F00
0180
0180
00C0
00C0
C0C0
C0C0
6180
7F80
1E00
ENDCHAR
STARTCHAR four
ENCODING 52
SWIDTH 54 0
DWIDTH 12 0
BBX 10 19 1 3
BITMAP
0300
0700
0700
0F00
0F00
1B00
1B00
3300
3300
6300
6300
C300
FFC0
FFC0
0300
0300
0300
0300
0300
ENDCHAR
STARTCHAR five
ENCODING 53
SWIDTH 54 0
DWIDTH 12 0
BBX 10 19 1 3
BITMAP
7F80
7F80
6000
6000
6000
6000
6E00
7F80
7180
60C0
00C0
00C0
00C0
00C0
C0C0
C0C0
6180
7F80
1E00
ENDCHAR
STARTCHAR six
ENCODING 54
SWIDTH 54 0
DWIDTH 12 0
BBX 10 19 1 3
BITMAP
1F00
3F80
71C0
6080
E000
C000
C000
DE00
FF00
E380
C180
C0C0
C0C0
C0C0
E0C0
6180
7380
3F00
1E00
ENDCHAR
STARTCHAR seven
ENCODING 55
SWIDTH 54 0
DWIDTH 12 0
BBX 10 19 1 3
BITMAP
FFC0
FFC0
00C0
01C0
0180
0180
0380
0300
0300
0700
0600
0600
0E00
0C00
0C00
1C00
1800
1800
1800
ENDCHAR
STARTCHAR eight
ENCODING 56
SWIDTH 54 0
DWIDTH 12 0
BBX 10 19 1 3
BITMAP
1E00
3F00
7380
6180
6180
6180
6180
3300
1E00
3F00
7380
6180
C0C0
C0C0
C0C0
C0C0
6180
7F80
1E00
ENDCHAR
STARTCHAR nine
ENCODING 57
SWIDTH 54 0
DWIDTH 12 0
BBX 10 19 1 3
BITMAP
1E00
3F00
7380
6180
C1C0
C0C0
C0C0
C0C0
60C0
71C0
3FC0
1EC0
00C0
00C0
01C0
4180
E380
7F00
3E00
ENDCHAR
STARTCHAR colon
ENCODING 58
SWIDTH 54 0
DWIDTH 12 0
BBX 4 13 4 6
BITMAP
F0
F0
F0
F0
00
00
00
00
00
F0
F0
F0
F0
ENDCHAR
STARTCHAR semicolon
ENCODING 59
SWIDTH 54 0
DWIDTH 12 0
BBX 4 17 4 2
BITMAP
F0
F0
F0
F0
00
00
00
00
00
F0
F0
F0
F0
30
30
60
C0
ENDCHAR
STARTCHAR less
ENCODING 60
SWIDTH 54 0
DWIDTH 12 0
BBX 9 15 2 5
BITMAP
0100
0380
0700
0E00
1C00
3800
7000
E000
7000
3800
1C00
0E00
0700
0380
0100
ENDCHAR
STARTCHAR equal
ENCODING 61
SWIDTH 54 0
DWIDTH 12 0
BBX 10 8 1 8
BITMAP
FFC0
FFC0
0000
0000
0000
0000
FFC0
FFC0
ENDCHAR
STARTCHAR greater
ENCODING 62
SWIDTH 54 0
DWIDTH 12 0
BBX 9 15 2 5
BITMAP
4000
E000
7000
3800
1C00
0E00
0700
0380
0700
0E00
1C00
3800
7000
E000
4000
ENDCHAR
STARTCHAR question
ENCODING 63
SWIDTH 54 0
DWIDTH 12 0
BBX 10 23 1 0
BITMAP
1E00
7F80
6180
C0C0
C0C0
C0C0
C1C0
0180
0380
0300
0700
0600
0E00
0C00
0C00
0C00
0C00
0000
0000
0000
0C00
0C00
0C00
ENDCHAR
STARTCHAR at
ENCODING 64
SWIDTH 54 0
DWIDTH 12 0
BBX 11 21 1 1
BITMAP
0E00
3F80
71C0
60C0
C060
C360
CF60
DF60
DB60
DB60
DB60
DB60
DB60
DB60
CFE0
C4C0
C000
6040
70E0
3FC0
0F00
ENDCHAR
STARTCHAR A
ENCODING 65
SWIDTH 54 0
DWIDTH 12 0
BBX 11 19 1 3
BITMAP
0400
0400
0E00
0E00
0E00
1B00
1B00
1B00
1B00
3180
3180
3F80
7FC0
60C0
60C0
60C0
C060
C060
C060
ENDCHAR
STARTCHAR B
ENCODING 66
SWIDTH 54 0
DWIDTH 12 0
BBX 10 19 1 3
BITMAP
FE00
FF80
C180
C0C0
C0C0
C0C0
C0C0
C180
FF00
FF80
C180
C0C0
C0C0
C0C0
C0C0
C0C0
C180
FF80
FE00
ENDCHAR
STARTCHAR C
ENCODING 67
SWIDTH 54 0
DWIDTH 12 0
BBX 11 19 1 3
BITMAP
0E00
3F80
71C0
60C0
E060
C040
C000
C000
C000
C000
C000
C000
C000
C040
E060
60C0
71C0
3F80
0E00
ENDCHAR
STARTCHAR D
ENCODING 68
SWIDTH 54 0
DWIDTH 12 0
BBX 11 19 1 3
BITMAP
FC00
FF00
C780
C1C0
C0C0
C0E0
C060
C060
C060
C060
C060
C060
C060
C0E0
C0C0
C1C0
C780
FF00
FC00
ENDCHAR
STARTCHAR E
ENCODING 69
SWIDTH 54 0
DWIDTH 12 0
BBX 10 19 1 3
BITMAP
FFC0
FFC0
C000
C000
C000
C000
C000
C000
FF80
FF80
C000
C000
C000
C000
C000
C000
C000
FFC0
FFC0
ENDCHAR
STARTCHAR F
ENCODING 70
SWIDTH 54 0
DWIDTH 12 0
BBX 10 19 1 3
BITMAP
FFC0
FFC0
C000
C000
C000
C000
C000
C000
FF80
FF80
C000
C000
C000
C000
C000
C000
C000
C000
C000
ENDCHAR
STARTCHAR G
ENCODING 71
SWIDTH 54 0
DWIDTH 12 0
BBX 11 19 1 3
BITMAP
0F00
3FC0
70C0
6060
C040
C000
C000
C000
C000
C3E0
C3E0
C060
C060
C060
C060
60E0
71E0
3FE0
0E60
ENDCHAR
STARTCHAR H
ENCODING 72
SWIDTH 54 0
DWIDTH 12 0
BBX 11 19 1 3
BITMAP
C060
C060
C060
C060
C060
C060
C060
C060
FFE0
FFE0
C060
C060
C060
C060
C060
C060
C060
C060
C060
ENDCHAR
STARTCHAR I
ENCODING 73
SWIDTH 54 0
DWIDTH 12 0
BBX 4 19 4 3
BITMAP
F0
60
60
60
60
60
60
60
60
60
60
60
60
60
60
60
60
60
F0
ENDCHAR
STARTCHAR J
ENCODING 74
SWIDTH 54 0
DWIDTH 12 0
BBX 8 19 2 3
BITMAP
03
03
03
03
03
03
03
03
03
03
03
03
03
03
03
43
E7
7E
3C
ENDCHAR
STARTCHAR K
ENCODING 75
SWIDTH 54 0
DWIDTH 12 0
BBX 10 19 1 3
BITMAP
C1C0
C180
C380
C300
C700
C600
CE00
CC00
DC00
F800
FC00
CC00
CE00
C600
C700
C300
C380
C180
C1C0
ENDCHAR
STARTCHAR L
ENCODING 76
SWIDTH 54 0
DWIDTH 12 0
BBX 10 19 1 3
BITMAP
C000
C000
C000
C000
C000
C000
C000
C000
C000
C000
C000
C000
C000
C000
C000
C000
C000
FFC0
FFC0
ENDCHAR
STARTCHAR M
ENCODING 77
SWIDTH 54 0
DWIDTH 12 0
BBX 11 19 1 3
BITMAP
C060
C060
E0E0
E0E0
E0E0
E0E0
F1E0
F1E0
F1E0
F1E0
DB60
DB60
DB60
DB60
CE60
CE60
CE60
C460
C460
ENDCHAR
STARTCHAR N
ENCODING 78
SWIDTH 54 0
DWIDTH 12 0
BBX 11 19 1 3
BITMAP
C060
E060
E060
F060
F060
F860
D860
DC60
CC60
CE60
C660
C760
C360
C3E0
C1E0
C1E0
C0E0
C0E0
C060
ENDCHAR
STARTCHAR O
ENCODING 79
SWIDTH 54 0
DWIDTH 12 0
BBX 11 19 1 3
BITMAP
0E00
3F80
71C0
60C0
E0E0
C060
C060
C060
C060
C060
C060
C060
C060
C060
E0E0
60C0
71C0
3F80
0E00
ENDCHAR
STARTCHAR P
ENCODING 80
SWIDTH 54 0
DWIDTH 12 0
BBX 11 19 1 3
BITMAP
FF00
FF80
C1C0
C0C0
C060
C060
C060
C0C0
C1C0
FF80
FF00
C000
C000
C000
C000
C000
C000
C000
C000
ENDCHAR
STARTCHAR Q
ENCODING 81
SWIDTH 54 0
DWIDTH 12 0
BBX 11 19 1 3
BITMAP
0E00
3F80
71C0
60C0
E0E0
C060
C060
C060
C060
C060
C060
C060
C060
C060
E6E0
67C0
73C0
3FE0
0EE0
ENDCHAR
STARTCHAR R
ENCODING 82
SWIDTH 54 0
DWIDTH 12 0
BBX 11 19 1 3
BITMAP
FC00
FF00
C380
C180
C0C0
C0C0
C0C0
C180
C380
FF00
FE00
C600
C700
C300
C380
C180
C1C0
C0C0
C0E0
ENDCHAR
STARTCHAR S
ENCODING 83
SWIDTH 54 0
DWIDTH 12 0
BBX 11 19 1 3
BITMAP
0E00
3F80
3180
60C0
6080
6000
3000
3800
1C00
0F00
0380
01C0
00C0
4060
C060
6060
70C0
3FC0
0F00
ENDCHAR
STARTCHAR T
ENCODING 84
SWIDTH 54 0
DWIDTH 12 0
BBX 10 19 1 3
BITMAP
FFC0
FFC0
0C00
0C00
0C00
0C00
0C00
0C00
0C00
0C00
0C00
0C00
0C00
0C00
0C00
0C00
0C00
0C00
0C00
ENDCHAR
STARTCHAR U
ENCODING 85
SWIDTH 54 0
DWIDTH 12 0
BBX 11 19 1 3
BITMAP
C060
C060
C060
C060
C060
C060
C060
C060
C060
C060
C060
C060
C060
C060
E0E0
60C0
7BC0
3F80
0E00
ENDCHAR
STARTCHAR V
ENCODING 86
SWIDTH 54 0
DWIDTH 12 0
BBX 10 18 1 3
BITMAP
C0C0
C0C0
C0C0
E1C0
6180
6180
6180
7380
3300
3300
3300
3F00
1E00
1E00
1E00
0C00
0C00
0C00
ENDCHAR
STARTCHAR W
ENCODING 87
SWIDTH 54 0
DWIDTH 12 0
BBX 11 19 1 3
BITMAP
C060
C460
C460
C460
C460
CE60
CE60
6EC0
6EC0
6EC0
7BC0
7BC0
7BC0
7BC0
3180
3180
3180
3180
3180
ENDCHAR
STARTCHAR X
ENCODING 88
SWIDTH 54 0
DWIDTH 12 0
BBX 11 19 1 3
BITMAP
C060
E0E0
60C0
71C0
3180
3B80
1B00
1F00
0E00
0E00
0E00
1F00
1B00
3B80
3180
71C0
60C0
E0E0
C060
ENDCHAR
STARTCHAR Y
ENCODING 89
SWIDTH 54 0
DWIDTH 12 0
BBX 10 19 1 3
BITMAP
C0C0
C0C0
E1C0
6180
6180
7380
3300
3300
3F00
1E00
1E00
0C00
0C00
0C00
0C00
0C00
0C00
0C00
0C00
ENDCHAR
STARTCHAR Z
ENCODING 90
SWIDTH 54 0
DWIDTH 12 0
BBX 10 19 1 3
BITMAP
FFC0
FFC0
01C0
0180
0380
0300
0700
0600
0E00
0C00
1C00
1800
3800
3000
7000
6000
E000
FFC0
FFC0
ENDCHAR
STARTCHAR bracketleft
ENCODING 91
SWIDTH 54 0
DWIDTH 12 0
BBX 8 23 2 0
BITMAP
FF
FF
C0
C0
C0
C0
C0
C0
C0
C0
C0
C0
C0
C0
C0
C0
C0
C0
C0
C0
C0
FF
FF
ENDCHAR
STARTCHAR backslash
ENCODING 92
SWIDTH 54 0
DWIDTH 12 0
BBX 12 19 0 3
BITMAP
6030
6230
6230
6230
6230
FFF0
FFF0
3760
3760
FFF0
FFF0
3DE0
3DE0
3DE0
18C0
18C0
18C0
18C0
18C0
ENDCHAR
STARTCHAR bracketright
ENCODING 93
SWIDTH 54 0
DWIDTH 12 0
BBX 8 23 2 0
BITMAP
FF
FF
03
03
03
03
03
03
03
03
03
03
03
03
03
03
03
03
03
03
03
FF
FF
ENDCHAR
STARTCHAR asciicircum
ENCODING 94
SWIDTH 54 0
DWIDTH 12 0
BBX 9 6 2 17
BITMAP
0800
1C00
3E00
7700
E380
4100
ENDCHAR
STARTCHAR underscore
ENCODING 95
SWIDTH 54 0
DWIDTH 12 0
BBX 12 2 0 0
BITMAP
FFF0
FFF0
ENDCHAR
STARTCHAR grave
ENCODING 96
SWIDTH 54 0
DWIDTH 12 0
BBX 7 4 3 18
BITMAP
F0
38
0C
02
ENDCHAR
STARTCHAR a
ENCODING 97
SWIDTH 54 0
DWIDTH 12 0
BBX 11 13 1 3
BITMAP
1E00
7F80
E180
40C0
0FC0
3FC0
78C0
60C0
C0C0
C0C0
E1C0
7FC0
3EE0
ENDCHAR
STARTCHAR b
ENCODING 98
SWIDTH 54 0
DWIDTH 12 0
BBX 10 19 1 3
BITMAP
C000
C000
C000
C000
C000
C000
DE00
FF80
E180
C0C0
C0C0
C0C0
C0C0
C0C0
C0C0
C0C0
E180
FF80
DE00
ENDCHAR
STARTCHAR c
ENCODING 99
SWIDTH 54 0
DWIDTH 12 0
BBX 11 13 1 3
BITMAP
0F00
3FC0
70E0
6040
C000
C000
C000
C000
C000
6040
70E0
3FC0
0F00
ENDCHAR
STARTCHAR d
ENCODING 100
SWIDTH 54 0
DWIDTH 12 0
BBX 10 19 1 3
BITMAP
00C0
00C0
00C0
00C0
00C0
00C0
00C0
1EC0
7FC0
61C0
C0C0
C0C0
C0C0
C0C0
C0C0
C0C0
61C0
7FC0
1EC0
ENDCHAR
STARTCHAR e
ENCODING 101
SWIDTH 54 0
DWIDTH 12 0
BBX 11 13 1 3
BITMAP
1F00
7FC0
60C0
C060
C060
FFE0
FFE0
C000
C000
C040
60E0
7FC0
1F00
ENDCHAR
STARTCHAR f
ENCODING 102
SWIDTH 54 0
DWIDTH 12 0
BBX 8 19 2 3
BITMAP
07
0F
1C
18
18
18
FF
FF
18
18
18
18
18
18
18
18
18
18
18
ENDCHAR
STARTCHAR g
ENCODING 103
SWIDTH 54 0
DWIDTH 12 0
BBX 11 17 1 0
BITMAP
0060
1EE0
3F80
7300
6180
6180
3380
3F00
7E00
6000
3E00
7F80
E1C0
C0C0
E1C0
7F80
1E00
ENDCHAR
STARTCHAR h
ENCODING 104
SWIDTH 54 0
DWIDTH 12 0
BBX 9 19 2 3
BITMAP
C000
C000
C000
C000
C000
C000
DC00
FF00
E300
C180
C180
C180
C180
C180
C180
C180
C180
C180
C180
ENDCHAR
STARTCHAR i
ENCODING 105
SWIDTH 54 0
DWIDTH 12 0
BBX 2 19 5 3
BITMAP
C0
C0
C0
00
00
00
C0
C0
C0
C0
C0
C0
C0
C0
C0
C0
C0
C0
C0
ENDCHAR
STARTCHAR j
ENCODING 106
SWIDTH 54 0
DWIDTH 12 0
BBX 6 22 3 0
BITMAP
0C
0C
0C
00
00
00
0C
0C
0C
0C
0C
0C
0C
0C
0C
0C
0C
0C
0C
1C
F8
F0
ENDCHAR
STARTCHAR k
ENCODING 107
SWIDTH 54 0
DWIDTH 12 0
BBX 11 19 1 3
BITMAP
C000
C000
C000
C000
C000
C1C0
C380
C700
CE00
DC00
F800
FC00
EE00
C600
C700
C380
C180
C1C0
C0E0
ENDCHAR
STARTCHAR l
ENCODING 108
SWIDTH 54 0
DWIDTH 12 0
BBX 2 19 5 3
BITMAP
C0
C0
C0
C0
C0
C0
C0
C0
C0
C0
C0
C0
C0
C0
C0
C0
C0
C0
C0
ENDCHAR
STARTCHAR m
ENCODING 109
SWIDTH 54 0
DWIDTH 12 0
BBX 10 13 1 3
BITMAP
DB80
FFC0
CCC0
CCC0
CCC0
CCC0
CCC0
CCC0
CCC0
CCC0
CCC0
CCC0
CCC0
ENDCHAR
STARTCHAR n
ENCODING 110
SWIDTH 54 0
DWIDTH 12 0
BBX 10 13 1 3
BITMAP
DE00
FF80
E180
C0C0
C0C0
C0C0
C0C0
C0C0
C0C0
C0C0
C0C0
C0C0
C0C0
ENDCHAR
STARTCHAR o
ENCODING 111
SWIDTH 54 0
DWIDTH 12 0
BBX 10 13 1 3
BITMAP
1E00
7F80
6180
C0C0
C0C0
C0C0
C0C0
C0C0
C0C0
C0C0
6180
7F80
1E00
ENDCHAR
STARTCHAR p
ENCODING 112
SWIDTH 54 0
DWIDTH 12 0
BBX 10 16 1 0
BITMAP
DE00
FF80
E180
C0C0
C0C0
C0C0
C0C0
C0C0
C0C0
E180
FF80
DE00
C000
C000
C000
C000
ENDCHAR
STARTCHAR q
ENCODING 113
SWIDTH 54 0
DWIDTH 12 0
BBX 10 16 1 0
BITMAP
1EC0
7FC0
61C0
C0C0
C0C0
C0C0
C0C0
C0C0
C0C0
61C0
7FC0
1EC0
00C0
00C0
00C0
00C0
ENDCHAR
STARTCHAR r
ENCODING 114
SWIDTH 54 0
DWIDTH 12 0
BBX 8 13 3 3
BITMAP
C6
DF
FC
F0
E0
C0
C0
C0
C0
C0
C0
C0
C0
ENDCHAR
STARTCHAR s
ENCODING 115
SWIDTH 54 0
DWIDTH 12 0
BBX 10 13 1 3
BITMAP
1F00
3F80
71C0
6080
7000
3C00
0F00
0380
01C0
40C0
F1C0
7F80
1F00
ENDCHAR
STARTCHAR t
ENCODING 116
SWIDTH 54 0
DWIDTH 12 0
BBX 8 18 2 3
BITMAP
18
18
18
18
18
FF
FF
18
18
18
18
18
18
18
18
1C
0F
07
ENDCHAR
STARTCHAR u
ENCODING 117
SWIDTH 54 0
DWIDTH 12 0
BBX 10 13 1 3
BITMAP
C0C0
C0C0
C0C0
C0C0
C0C0
C0C0
C0C0
C0C0
C0C0
C0C0
61C0
7FC0
1EC0
ENDCHAR
STARTCHAR v
ENCODING 118
SWIDTH 54 0
DWIDTH 12 0
BBX 10 13 1 3
BITMAP
C0C0
C0C0
C0C0
6180
6180
6180
3300
3300
3300
1E00
1E00
0C00
0C00
ENDCHAR
STARTCHAR w
ENCODING 119
SWIDTH 54 0
DWIDTH 12 0
BBX 11 13 1 3
BITMAP
C060
C460
C460
C460
C460
6EC0
6EC0
6AC0
7BC0
3B80
3180
3180
3180
ENDCHAR
STARTCHAR x
ENCODING 120
SWIDTH 54 0
DWIDTH 12 0
BBX 11 13 1 3
BITMAP
E0E0
60C0
3180
3180
1B00
1F00
0E00
1F00
1B00
3180
3180
60C0
E0E0
ENDCHAR
STARTCHAR y
ENCODING 121
SWIDTH 54 0
DWIDTH 12 0
BBX 10 16 1 0
BITMAP
C0C0
C0C0
60C0
6180
3180
3180
3300
1B00
1F00
1E00
0E00
0C00
1C00
3800
F000
E000
ENDCHAR
STARTCHAR z
ENCODING 122
SWIDTH 54 0
DWIDTH 12 0
BBX 9 13 2 3
BITMAP
FF80
FF80
0300
0700
0E00
0C00
1C00
1800
3800
7000
6000
FF80
FF80
ENDCHAR
STARTCHAR braceleft
ENCODING 123
SWIDTH 54 0
DWIDTH 12 0
BBX 6 23 3 0
BITMAP
1C
3C
30
30
30
30
30
30
30
30
E0
C0
E0
30
30
30
30
30
30
30
30
3C
1C
ENDCHAR
STARTCHAR bar
ENCODING 124
SWIDTH 54 0
DWIDTH 12 0
BBX 2 24 5 0
BITMAP
C0
C0
C0
C0
C0
C0
C0
C0
C0
C0
C0
C0
C0
C0
C0
C0
C0
C0
C0
C0
C0
C0
C0
C0
ENDCHAR
STARTCHAR braceright
ENCODING 125
SWIDTH 54 0
DWIDTH 12 0
BBX 6 23 3 0
BITMAP
E0
F0
30
30
30
30
30
30
30
30
1C
0C
1C
30
30
30
30
30
30
30
30
F0
E0
ENDCHAR
STARTCHAR asciitilde
ENCODING 126
SWIDTH 54 0
DWIDTH 12 0
BBX 11 4 1 19
BITMAP
3840
7EE0
EFC0
4380
ENDCHAR
STARTCHAR uni007F
ENCODING 127
SWIDTH 54 0
DWIDTH 12 0
BBX 10 8 1 6
BITMAP
0C00
1E00
3300
6180
C0C0
C0C0
FFC0
FFC0
ENDCHAR
STARTCHAR Euro
ENCODING 128
SWIDTH 54 0
DWIDTH 12 0
BBX 1 1 11 -3
BITMAP
00
ENDCHAR
STARTCHAR NameMe.129
ENCODING 129
SWIDTH 54 0
DWIDTH 12 0
BBX 1 1 11 -3
BITMAP
00
ENDCHAR
STARTCHAR quotesinglbase
ENCODING 130
SWIDTH 54 0
DWIDTH 12 0
BBX 1 1 11 -3
BITMAP
00
ENDCHAR
STARTCHAR florin
ENCODING 131
SWIDTH 54 0
DWIDTH 12 0
BBX 1 1 11 -3
BITMAP
00
ENDCHAR
STARTCHAR quotedblbase
ENCODING 132
SWIDTH 54 0
DWIDTH 12 0
BBX 1 1 11 -3
BITMAP
00
ENDCHAR
STARTCHAR ellipsis
ENCODING 133
SWIDTH 54 0
DWIDTH 12 0
BBX 1 1 11 -3
BITMAP
00
ENDCHAR
STARTCHAR dagger
ENCODING 134
SWIDTH 54 0
DWIDTH 12 0
BBX 1 1 11 -3
BITMAP
00
ENDCHAR
STARTCHAR daggerdbl
ENCODING 135
SWIDTH 54 0
DWIDTH 12 0
BBX 1 1 11 -3
BITMAP
00
ENDCHAR
STARTCHAR circumflex
ENCODING 136
SWIDTH 54 0
DWIDTH 12 0
BBX 1 1 11 -3
BITMAP
00
ENDCHAR
STARTCHAR perthousand
ENCODING 137
SWIDTH 54 0
DWIDTH 12 0
BBX 1 1 11 -3
BITMAP
00
ENDCHAR
STARTCHAR Scaron
ENCODING 138
SWIDTH 54 0
DWIDTH 12 0
BBX 1 1 11 -3
BITMAP
00
ENDCHAR
STARTCHAR guilsinglleft
ENCODING 139
SWIDTH 54 0
DWIDTH 12 0
BBX 1 1 11 -3
BITMAP
00
ENDCHAR
STARTCHAR OE
ENCODING 140
SWIDTH 54 0
DWIDTH 12 0
BBX 1 1 11 -3
BITMAP
00
ENDCHAR
STARTCHAR NameMe.141
ENCODING 141
SWIDTH 54 0
DWIDTH 12 0
BBX 1 1 11 -3
BITMAP
00
ENDCHAR
STARTCHAR Zcaron
ENCODING 142
SWIDTH 54 0
DWIDTH 12 0
BBX 1 1 11 -3
BITMAP
00
ENDCHAR
STARTCHAR NameMe.143
ENCODING 143
SWIDTH 54 0
DWIDTH 12 0
BBX 1 1 11 -3
BITMAP
00
ENDCHAR
STARTCHAR NameMe.144
ENCODING 144
SWIDTH 54 0
DWIDTH 12 0
BBX 1 1 11 -3
BITMAP
00
ENDCHAR
STARTCHAR quoteleft
ENCODING 145
SWIDTH 54 0
DWIDTH 12 0
BBX 1 1 11 -3
BITMAP
00
ENDCHAR
STARTCHAR quoteright
ENCODING 146
SWIDTH 54 0
DWIDTH 12 0
BBX 1 1 11 -3
BITMAP
00
ENDCHAR
STARTCHAR quotedblleft
ENCODING 147
SWIDTH 54 0
DWIDTH 12 0
BBX 1 1 11 -3
BITMAP
00
ENDCHAR
STARTCHAR quotedblright
ENCODING 148
SWIDTH 54 0
DWIDTH 12 0
BBX 1 1 11 -3
BITMAP
00
ENDCHAR
STARTCHAR bullet
ENCODING 149
SWIDTH 54 0
DWIDTH 12 0
BBX 1 1 11 -3
BITMAP
00
ENDCHAR
STARTCHAR endash
ENCODING 150
SWIDTH 54 0
DWIDTH 12 0
BBX 1 1 11 -3
BITMAP
00
ENDCHAR
STARTCHAR emdash
ENCODING 151
SWIDTH 54 0
DWIDTH 12 0
BBX 1 1 11 -3
BITMAP
00
ENDCHAR
STARTCHAR tilde
ENCODING 152
SWIDTH 54 0
DWIDTH 12 0
BBX 1 1 11 -3
BITMAP
00
ENDCHAR
STARTCHAR trademark
ENCODING 153
SWIDTH 54 0
DWIDTH 12 0
BBX 1 1 11 -3
BITMAP
00
ENDCHAR
STARTCHAR scaron
ENCODING 154
SWIDTH 54 0
DWIDTH 12 0
BBX 1 1 11 -3
BITMAP
00
ENDCHAR
STARTCHAR guilsinglright
ENCODING 155
SWIDTH 54 0
DWIDTH 12 0
BBX 1 1 11 -3
BITMAP
00
ENDCHAR
STARTCHAR oe
ENCODING 156
SWIDTH 54 0
DWIDTH 12 0
BBX 1 1 11 -3
BITMAP
00
ENDCHAR
STARTCHAR NameMe.157
ENCODING 157
SWIDTH 54 0
DWIDTH 12 0
BBX 1 1 11 -3
BITMAP
00
ENDCHAR
STARTCHAR zcaron
ENCODING 158
SWIDTH 54 0
DWIDTH 12 0
BBX 1 1 11 -3
BITMAP
00
ENDCHAR
STARTCHAR Ydieresis
ENCODING 159
SWIDTH 54 0
DWIDTH 12 0
BBX 1 1 11 -3
BITMAP
00
ENDCHAR
STARTCHAR uni00A0
ENCODING 160
SWIDTH 54 0
DWIDTH 12 0
BBX 1 1 11 -3
BITMAP
00
ENDCHAR
STARTCHAR exclamdown
ENCODING 161
SWIDTH 54 0
DWIDTH 12 0
BBX 1 1 11 -3
BITMAP
00
ENDCHAR
STARTCHAR cent
ENCODING 162
SWIDTH 54 0
DWIDTH 12 0
BBX 1 1 11 -3
BITMAP
00
ENDCHAR
STARTCHAR sterling
ENCODING 163
SWIDTH 54 0
DWIDTH 12 0
BBX 1 1 11 -3
BITMAP
00
ENDCHAR
STARTCHAR currency
ENCODING 164
SWIDTH 54 0
DWIDTH 12 0
BBX 1 1 11 -3
BITMAP
00
ENDCHAR
STARTCHAR yen
ENCODING 165
SWIDTH 54 0
DWIDTH 12 0
BBX 1 1 11 -3
BITMAP
00
ENDCHAR
STARTCHAR brokenbar
ENCODING 166
SWIDTH 54 0
DWIDTH 12 0
BBX 1 1 11 -3
BITMAP
00
ENDCHAR
STARTCHAR section
ENCODING 167
SWIDTH 54 0
DWIDTH 12 0
BBX 1 1 11 -3
BITMAP
00
ENDCHAR
STARTCHAR dieresis
ENCODING 168
SWIDTH 54 0
DWIDTH 12 0
BBX 1 1 11 -3
BITMAP
00
ENDCHAR
STARTCHAR copyright
ENCODING 169
SWIDTH 54 0
DWIDTH 12 0
BBX 1 1 11 -3
BITMAP
00
ENDCHAR
STARTCHAR ordfeminine
ENCODING 170
SWIDTH 54 0
DWIDTH 12 0
BBX 1 1 11 -3
BITMAP
00
ENDCHAR
STARTCHAR guillemotleft
ENCODING 171
SWIDTH 54 0
DWIDTH 12 0
BBX 1 1 11 -3
BITMAP
00
ENDCHAR
STARTCHAR logicalnot
ENCODING 172
SWIDTH 54 0
DWIDTH 12 0
BBX 1 1 11 -3
BITMAP
00
ENDCHAR
STARTCHAR uni00AD
ENCODING 173
SWIDTH 54 0
DWIDTH 12 0
BBX 1 1 11 -3
BITMAP
00
ENDCHAR
STARTCHAR registered
ENCODING 174
SWIDTH 54 0
DWIDTH 12 0
BBX 1 1 11 -3
BITMAP
00
ENDCHAR
STARTCHAR macron
ENCODING 175
SWIDTH 54 0
DWIDTH 12 0
BBX 1 1 11 -3
BITMAP
00
ENDCHAR
STARTCHAR degree
ENCODING 176
SWIDTH 54 0
DWIDTH 12 0
BBX 1 1 11 -3
BITMAP
00
ENDCHAR
STARTCHAR plusminus
ENCODING 177
SWIDTH 54 0
DWIDTH 12 0
BBX 1 1 11 -3
BITMAP
00
ENDCHAR
STARTCHAR uni00B2
ENCODING 178
SWIDTH 54 0
DWIDTH 12 0
BBX 1 1 11 -3
BITMAP
00
ENDCHAR
STARTCHAR uni00B3
ENCODING 179
SWIDTH 54 0
DWIDTH 12 0
BBX 1 1 11 -3
BITMAP
00
ENDCHAR
STARTCHAR acute
ENCODING 180
SWIDTH 54 0
DWIDTH 12 0
BBX 1 1 11 -3
BITMAP
00
ENDCHAR
STARTCHAR uni00B5
ENCODING 181
SWIDTH 54 0
DWIDTH 12 0
BBX 1 1 11 -3
BITMAP
00
ENDCHAR
STARTCHAR paragraph
ENCODING 182
SWIDTH 54 0
DWIDTH 12 0
BBX 1 1 11 -3
BITMAP
00
ENDCHAR
STARTCHAR periodcentered
ENCODING 183
SWIDTH 54 0
DWIDTH 12 0
BBX 1 1 11 -3
BITMAP
00
ENDCHAR
STARTCHAR cedilla
ENCODING 184
SWIDTH 54 0
DWIDTH 12 0
BBX 1 1 11 -3
BITMAP
00
ENDCHAR
STARTCHAR uni00B9
ENCODING 185
SWIDTH 54 0
DWIDTH 12 0
BBX 1 1 11 -3
BITMAP
00
ENDCHAR
STARTCHAR ordmasculine
ENCODING 186
SWIDTH 54 0
DWIDTH 12 0
BBX 1 1 11 -3
BITMAP
00
ENDCHAR
STARTCHAR guillemotright
ENCODING 187
SWIDTH 54 0
DWIDTH 12 0
BBX 1 1 11 -3
BITMAP
00
ENDCHAR
STARTCHAR onequarter
ENCODING 188
SWIDTH 54 0
DWIDTH 12 0
BBX 1 1 11 -3
BITMAP
00
ENDCHAR
STARTCHAR onehalf
ENCODING 189
SWIDTH 54 0
DWIDTH 12 0
BBX 1 1 11 -3
BITMAP
00
ENDCHAR
STARTCHAR threequarters
ENCODING 190
SWIDTH 54 0
DWIDTH 12 0
BBX 1 1 11 -3
BITMAP
00
ENDCHAR
STARTCHAR questiondown
ENCODING 191
SWIDTH 54 0
DWIDTH 12 0
BBX 1 1 11 -3
BITMAP
00
ENDCHAR
STARTCHAR Agrave
ENCODING 192
SWIDTH 54 0
DWIDTH 12 0
BBX 1 1 11 -3
BITMAP
00
ENDCHAR
STARTCHAR Aacute
ENCODING 193
SWIDTH 54 0
DWIDTH 12 0
BBX 1 1 11 -3
BITMAP
00
ENDCHAR
STARTCHAR Acircumflex
ENCODING 194
SWIDTH 54 0
DWIDTH 12 0
BBX 1 1 11 -3
BITMAP
00
ENDCHAR
STARTCHAR Atilde
ENCODING 195
SWIDTH 54 0
DWIDTH 12 0
BBX 1 1 11 -3
BITMAP
00
ENDCHAR
STARTCHAR Adieresis
ENCODING 196
SWIDTH 54 0
DWIDTH 12 0
BBX 1 1 11 -3
BITMAP
00
ENDCHAR
STARTCHAR Aring
ENCODING 197
SWIDTH 54 0
DWIDTH 12 0
BBX 1 1 11 -3
BITMAP
00
ENDCHAR
STARTCHAR AE
ENCODING 198
SWIDTH 54 0
DWIDTH 12 0
BBX 1 1 11 -3
BITMAP
00
ENDCHAR
STARTCHAR Ccedilla
ENCODING 199
SWIDTH 54 0
DWIDTH 12 0
BBX 1 1 11 -3
BITMAP
00
ENDCHAR
STARTCHAR Egrave
ENCODING 200
SWIDTH 54 0
DWIDTH 12 0
BBX 1 1 11 -3
BITMAP
00
ENDCHAR
STARTCHAR Eacute
ENCODING 201
SWIDTH 54 0
DWIDTH 12 0
BBX 1 1 11 -3
BITMAP
00
ENDCHAR
STARTCHAR Ecircumflex
ENCODING 202
SWIDTH 54 0
DWIDTH 12 0
BBX 1 1 11 -3
BITMAP
00
ENDCHAR
STARTCHAR Edieresis
ENCODING 203
SWIDTH 54 0
DWIDTH 12 0
BBX 1 1 11 -3
BITMAP
00
ENDCHAR
STARTCHAR Igrave
ENCODING 204
SWIDTH 54 0
DWIDTH 12 0
BBX 1 1 11 -3
BITMAP
00
ENDCHAR
STARTCHAR Iacute
ENCODING 205
SWIDTH 54 0
DWIDTH 12 0
BBX 1 1 11 -3
BITMAP
00
ENDCHAR
STARTCHAR Icircumflex
ENCODING 206
SWIDTH 54 0
DWIDTH 12 0
BBX 1 1 11 -3
BITMAP
00
ENDCHAR
STARTCHAR Idieresis
ENCODING 207
SWIDTH 54 0
DWIDTH 12 0
BBX 1 1 11 -3
BITMAP
00
ENDCHAR
STARTCHAR Eth
ENCODING 208
SWIDTH 54 0
DWIDTH 12 0
BBX 1 1 11 -3
BITMAP
00
ENDCHAR
STARTCHAR Ntilde
ENCODING 209
SWIDTH 54 0
DWIDTH 12 0
BBX 1 1 11 -3
BITMAP
00
ENDCHAR
STARTCHAR Ograve
ENCODING 210
SWIDTH 54 0
DWIDTH 12 0
BBX 1 1 11 -3
BITMAP
00
ENDCHAR
STARTCHAR Oacute
ENCODING 211
SWIDTH 54 0
DWIDTH 12 0
BBX 1 1 11 -3
BITMAP
00
ENDCHAR
STARTCHAR Ocircumflex
ENCODING 212
SWIDTH 54 0
DWIDTH 12 0
BBX 1 1 11 -3
BITMAP
00
ENDCHAR
STARTCHAR Otilde
ENCODING 213
SWIDTH 54 0
DWIDTH 12 0
BBX 1 1 11 -3
BITMAP
00
ENDCHAR
STARTCHAR Odieresis
ENCODING 214
SWIDTH 54 0
DWIDTH 12 0
BBX 1 1 11 -3
BITMAP
00
ENDCHAR
STARTCHAR multiply
ENCODING 215
SWIDTH 54 0
DWIDTH 12 0
BBX 1 1 11 -3
BITMAP
00
ENDCHAR
STARTCHAR Oslash
ENCODING 216
SWIDTH 54 0
DWIDTH 12 0
BBX 1 1 11 -3
BITMAP
00
ENDCHAR
STARTCHAR Ugrave
ENCODING 217
SWIDTH 54 0
DWIDTH 12 0
BBX 1 1 11 -3
BITMAP
00
ENDCHAR
STARTCHAR Uacute
ENCODING 218
SWIDTH 54 0
DWIDTH 12 0
BBX 1 1 11 -3
BITMAP
00
ENDCHAR
STARTCHAR Ucircumflex
ENCODING 219
SWIDTH 54 0
DWIDTH 12 0
BBX 1 1 11 -3
BITMAP
00
ENDCHAR
STARTCHAR Udieresis
ENCODING 220
SWIDTH 54 0
DWIDTH 12 0
BBX 1 1 11 -3
BITMAP
00
ENDCHAR
STARTCHAR Yacute
ENCODING 221
SWIDTH 54 0
DWIDTH 12 0
BBX 1 1 11 -3
BITMAP
00
ENDCHAR
STARTCHAR Thorn
ENCODING 222
SWIDTH 54 0
DWIDTH 12 0
BBX 1 1 11 -3
BITMAP
00
ENDCHAR
STARTCHAR germandbls
ENCODING 223
SWIDTH 54 0
DWIDTH 12 0
BBX 1 1 11 -3
BITMAP
00
ENDCHAR
STARTCHAR agrave
ENCODING 224
SWIDTH 54 0
DWIDTH 12 0
BBX 1 1 11 -3
BITMAP
00
ENDCHAR
STARTCHAR aacute
ENCODING 225
SWIDTH 54 0
DWIDTH 12 0
BBX 1 1 11 -3
BITMAP
00
ENDCHAR
STARTCHAR acircumflex
ENCODING 226
SWIDTH 54 0
DWIDTH 12 0
BBX 1 1 11 -3
BITMAP
00
ENDCHAR
STARTCHAR atilde
ENCODING 227
SWIDTH 54 0
DWIDTH 12 0
BBX 1 1 11 -3
BITMAP
00
ENDCHAR
STARTCHAR adieresis
ENCODING 228
SWIDTH 54 0
DWIDTH 12 0
BBX 1 1 11 -3
BITMAP
00
ENDCHAR
STARTCHAR aring
ENCODING 229
SWIDTH 54 0
DWIDTH 12 0
BBX 1 1 11 -3
BITMAP
00
ENDCHAR
STARTCHAR ae
ENCODING 230
SWIDTH 54 0
DWIDTH 12 0
BBX 1 1 11 -3
BITMAP
00
ENDCHAR
STARTCHAR ccedilla
ENCODING 231
SWIDTH 54 0
DWIDTH 12 0
BBX 1 1 11 -3
BITMAP
00
ENDCHAR
STARTCHAR egrave
ENCODING 232
SWIDTH 54 0
DWIDTH 12 0
BBX 1 1 11 -3
BITMAP
00
ENDCHAR
STARTCHAR eacute
ENCODING 233
SWIDTH 54 0
DWIDTH 12 0
BBX 1 1 11 -3
BITMAP
00
ENDCHAR
STARTCHAR ecircumflex
ENCODING 234
SWIDTH 54 0
DWIDTH 12 0
BBX 1 1 11 -3
BITMAP
00
ENDCHAR
STARTCHAR edieresis
ENCODING 235
SWIDTH 54 0
DWIDTH 12 0
BBX 1 1 11 -3
BITMAP
00
ENDCHAR
STARTCHAR igrave
ENCODING 236
SWIDTH 54 0
DWIDTH 12 0
BBX 1 1 11 -3
BITMAP
00
ENDCHAR
STARTCHAR iacute
ENCODING 237
SWIDTH 54 0
DWIDTH 12 0
BBX 1 1 11 -3
BITMAP
00
ENDCHAR
STARTCHAR icircumflex
ENCODING 238
SWIDTH 54 0
DWIDTH 12 0
BBX 1 1 11 -3
BITMAP
00
ENDCHAR
STARTCHAR idieresis
ENCODING 239
SWIDTH 54 0
DWIDTH 12 0
BBX 1 1 11 -3
BITMAP
00
ENDCHAR
STARTCHAR eth
ENCODING 240
SWIDTH 54 0
DWIDTH 12 0
BBX 1 1 11 -3
BITMAP
00
ENDCHAR
STARTCHAR ntilde
ENCODING 241
SWIDTH 54 0
DWIDTH 12 0
BBX 1 1 11 -3
BITMAP
00
ENDCHAR
STARTCHAR ograve
ENCODING 242
SWIDTH 54 0
DWIDTH 12 0
BBX 1 1 11 -3
BITMAP
00
ENDCHAR
STARTCHAR oacute
ENCODING 243
SWIDTH 54 0
DWIDTH 12 0
BBX 1 1 11 -3
BITMAP
00
ENDCHAR
STARTCHAR ocircumflex
ENCODING 244
SWIDTH 54 0
DWIDTH 12 0
BBX 1 1 11 -3
BITMAP
00
ENDCHAR
STARTCHAR otilde
ENCODING 245
SWIDTH 54 0
DWIDTH 12 0
BBX 1 1 11 -3
BITMAP
00
ENDCHAR
STARTCHAR odieresis
ENCODING 246
SWIDTH 54 0
DWIDTH 12 0
BBX 1 1 11 -3
BITMAP
00
ENDCHAR
STARTCHAR divide
ENCODING 247
SWIDTH 54 0
DWIDTH 12 0
BBX 1 1 11 -3
BITMAP
00
ENDCHAR
STARTCHAR oslash
ENCODING 248
SWIDTH 54 0
DWIDTH 12 0
BBX 1 1 11 -3
BITMAP
00
ENDCHAR
STARTCHAR ugrave
ENCODING 249
SWIDTH 54 0
DWIDTH 12 0
BBX 1 1 11 -3
BITMAP
00
ENDCHAR
STARTCHAR uacute
ENCODING 250
SWIDTH 54 0
DWIDTH 12 0
BBX 1 1 11 -3
BITMAP
00
ENDCHAR
STARTCHAR ucircumflex
ENCODING 251
SWIDTH 54 0
DWIDTH 12 0
BBX 1 1 11 -3
BITMAP
00
ENDCHAR
STARTCHAR udieresis
ENCODING 252
SWIDTH 54 0
DWIDTH 12 0
BBX 1 1 11 -3
BITMAP
00
ENDCHAR
STARTCHAR yacute
ENCODING 253
SWIDTH 54 0
DWIDTH 12 0
BBX 1 1 11 -3
BITMAP
00
ENDCHAR
STARTCHAR thorn
ENCODING 254
SWIDTH 54 0
DWIDTH 12 0
BBX 1 1 11 -3
BITMAP
00
ENDCHAR
STARTCHAR ydieresis
ENCODING 255
SWIDTH 54 0
DWIDTH 12 0
BBX 1 1 11 -3
BITMAP
00
ENDCHAR
ENDFONT
